<?xml version="1.0" encoding="utf-8"?>
<!-- Generator: Adobe Illustrator 16.0.4, SVG Export Plug-In . SVG Version: 6.00 Build 0)  -->
<!DOCTYPE svg PUBLIC "-//W3C//DTD SVG 1.1//EN" "http://www.w3.org/Graphics/SVG/1.1/DTD/svg11.dtd">
<svg version="1.1" id="Layer_1" xmlns="http://www.w3.org/2000/svg" xmlns:xlink="http://www.w3.org/1999/xlink" x="0px" y="0px"
	 width="121px" height="121px" viewBox="0 0 121 121" enable-background="new 0 0 121 121" xml:space="preserve">
<g>
	<path d="M62.8,57.8c5.2,0,37.3-35.6,53-53.4c-2.9-2.7-6.7-4.4-11-4.4H16.1c-3.6,0-6.9,1.2-9.6,3.2C22.5,20.6,57.5,57.8,62.8,57.8z"
		/>
	<path d="M62.5,70.5c-5.3,0-45.2-42.1-61.6-59.7C0.3,12.5,0,14.3,0,16.1v88.7c0,8.9,7.2,16.1,16.1,16.1h88.8
		c8.9,0,16.1-7.2,16.1-16.1V16.1c0-1.2-0.2-2.4-0.4-3.6C104.2,30.6,67.7,70.5,62.5,70.5z"/>
</g>
</svg>
