<?xml version="1.0" encoding="utf-8"?>
<!-- Generator: Adobe Illustrator 16.0.4, SVG Export Plug-In . SVG Version: 6.00 Build 0)  -->
<!DOCTYPE svg PUBLIC "-//W3C//DTD SVG 1.1//EN" "http://www.w3.org/Graphics/SVG/1.1/DTD/svg11.dtd">
<svg version="1.1" id="Layer_1" xmlns="http://www.w3.org/2000/svg" xmlns:xlink="http://www.w3.org/1999/xlink" x="0px" y="0px"
	 width="244.5px" height="49.8px" viewBox="0 0 244.5 49.8" enable-background="new 0 0 244.5 49.8" xml:space="preserve">
<g>
	<path d="M197.1,22.4v26.4c0,0.4,0.6,1.1,0,1.1h-17V31.9c0-1.3,0-2.5-0.9-3.4c-0.9-0.9-2.1-1.4-3.4-1.4c-2.6,0-4.8,2.1-4.8,4.8v17.9
		h-15.4c-0.6,0-1.6-0.7-1.6-1.1V22.4c0-0.3,1,0.4,1.6,0.4h-3.5l12.1-11.5L176.4,0l12.1,11.4l12.1,11.4h-3.5
		C198.1,22.8,197.1,22,197.1,22.4z"/>
	<g>
		<path d="M18.7,30l-2.9,2.2c-1.3-1.4-2.8-2.1-4.5-2.1c-2.2,0-3.9,0.7-5.3,2.2c-1.3,1.5-2,3.3-2,5.4c0,2.3,0.7,4.2,2,5.7
			c1.4,1.5,3.1,2.2,5.3,2.2c1.8,0,3.4-0.9,4.8-2.6l3.1,2.2c-1.8,2.5-4.5,3.8-7.9,3.8c-3.3,0-6-1-8.1-3.1c-2.1-2-3.1-4.7-3.1-8
			c0-3.4,1-6.1,3.1-8.2c2.1-2.1,4.8-3.1,8.1-3.1C14.2,26.7,16.7,27.8,18.7,30z"/>
		<path d="M20.6,37.9c0-3.4,1-6.1,3.1-8.2c2.1-2.1,4.8-3.1,8.1-3.1c3.3-0.1,6.1,0.9,8.2,3c2.1,2.1,3.2,4.8,3.2,8.1c0,3.3-1,6-3.2,8
			c-2.1,2.1-4.8,3.1-8.2,3.2c-3.3,0-6-1-8.1-3.1S20.6,41.2,20.6,37.9z M24.5,37.7c0,2.3,0.7,4.2,2,5.7c1.3,1.5,3.1,2.2,5.3,2.2
			c2.2,0,3.9-0.7,5.3-2.2c1.3-1.5,2-3.4,2-5.7c0-2.2-0.7-4-2-5.4c-1.4-1.4-3.1-2.2-5.3-2.2s-3.9,0.7-5.3,2.2
			C25.2,33.7,24.5,35.5,24.5,37.7z"/>
		<path d="M46.7,48.4V27.2h5L62,43L62,43H62L62,43V27.2h3.8v21.2H61L50.5,32.1h-0.1v16.3H46.7z"/>
		<path d="M74.9,48.4V30.6h-6.5v-3.4h16.8v3.4h-6.5v17.8H74.9z"/>
		<path d="M82.7,48.4l9.2-21.2h3.3l9.2,21.2H100l-2-4.9h-9.2l-1.9,4.9H82.7z M90.1,40.3h6.6l-3.3-8.6L90.1,40.3z"/>
		<path d="M124.2,30l-2.9,2.2c-1.3-1.4-2.8-2.1-4.5-2.1c-2.2,0-3.9,0.7-5.3,2.2c-1.3,1.5-2,3.3-2,5.4c0,2.3,0.7,4.2,2,5.7
			c1.4,1.5,3.1,2.2,5.3,2.2c1.8,0,3.4-0.9,4.8-2.6l3.1,2.2c-1.8,2.5-4.5,3.8-7.9,3.8c-3.3,0-6-1-8.1-3.1c-2.1-2-3.1-4.7-3.1-8
			c0-3.4,1-6.1,3.1-8.2c2.1-2.1,4.8-3.1,8.1-3.1C119.8,26.7,122.3,27.8,124.2,30z"/>
		<path d="M131.6,48.4V30.6h-6.5v-3.4h16.8v3.4h-6.5v17.8H131.6z"/>
	</g>
	<g>
		<path d="M226.6,27.2v13.4c0,2.5-0.8,4.5-2.4,6.1c-1.6,1.5-3.7,2.3-6.1,2.3c-2.5,0-4.5-0.8-6.1-2.3c-1.6-1.5-2.4-3.5-2.4-6.1V27.2
			h3.8v13.3c0,1.3,0.4,2.4,1.2,3.4c0.8,1,2,1.5,3.6,1.5c1.6,0,2.8-0.5,3.6-1.5c0.8-1,1.2-2.1,1.2-3.4V27.2H226.6z"/>
		<path d="M244.4,28.9l-2.8,2.9c-0.8-1.1-2-1.7-3.7-1.7c-1,0-1.8,0.2-2.5,0.7c-0.7,0.5-1,1.1-1,2c0,0.7,0.2,1.2,0.8,1.6
			c0.5,0.4,1.1,0.8,1.9,1c0.7,0.2,1.5,0.5,2.4,0.8c0.9,0.3,1.7,0.7,2.4,1.1s1.4,1,1.9,1.8c0.5,0.8,0.8,1.8,0.8,3
			c0,2.2-0.7,3.9-2.2,5c-1.5,1.2-3.3,1.8-5.6,1.8c-3,0-5.3-1-7-2.9l2.8-2.8c1,1.5,2.4,2.2,4.2,2.2c1,0,1.8-0.3,2.6-0.8
			c0.8-0.5,1.1-1.2,1.1-2.1c0-0.6-0.2-1.1-0.6-1.6c-0.4-0.4-0.9-0.8-1.4-1c-0.6-0.2-1.2-0.5-2-0.7c-0.7-0.2-1.4-0.5-2.2-0.8
			s-1.4-0.6-2-1.1c-0.6-0.4-1.1-1-1.4-1.8s-0.6-1.6-0.6-2.7c0-2.1,0.8-3.6,2.3-4.8c1.5-1.1,3.4-1.7,5.5-1.7
			C240.8,26.7,242.9,27.4,244.4,28.9z"/>
	</g>
</g>
</svg>
