<?xml version="1.0" encoding="utf-8"?>
<!-- Generator: Adobe Illustrator 16.0.4, SVG Export Plug-In . SVG Version: 6.00 Build 0)  -->
<!DOCTYPE svg PUBLIC "-//W3C//DTD SVG 1.1//EN" "http://www.w3.org/Graphics/SVG/1.1/DTD/svg11.dtd">
<svg version="1.1" id="Layer_1" xmlns="http://www.w3.org/2000/svg" xmlns:xlink="http://www.w3.org/1999/xlink" x="0px" y="0px"
	 width="127.4px" height="127.3px" viewBox="0 0 127.4 127.3" enable-background="new 0 0 127.4 127.3" xml:space="preserve">
<g>
	<path fill-rule="evenodd" clip-rule="evenodd" d="M63.7,127.3c-16,0-31.9,0-47.9,0c-9,0-15.8-6.7-15.8-15.6c0-32,0-64,0-96
		C0,6.7,6.8,0,15.8,0c31.9,0,63.9,0,95.8,0c9.1,0,15.8,6.7,15.8,15.8c0,31.9,0,63.8,0,95.6c0,9.2-6.7,15.8-15.9,15.8
		C95.6,127.3,79.6,127.3,63.7,127.3z M68.8,56.6c-0.1,0-0.3-0.1-0.4-0.1c0-2.3,0-4.5,0-6.8c-5.6,0-11,0-16.5,0c0,18.8,0,37.4,0,56.1
		c5.5,0,10.9,0,16.5,0c0-0.7,0-1.4,0-2c0-9.1,0-18.2,0-27.4c0-2,0.3-4,0.8-5.9c1.3-4.6,5.2-7.1,10.1-6.9c4.7,0.2,7.5,2.6,8.7,7.5
		c0.3,1.1,0.4,2.2,0.4,3.3c0.1,9.9,0.1,19.7,0.1,29.6c0,0.6,0,1.2,0,1.8c5.9,0,11.5,0,17.2,0c0-0.4,0.1-0.7,0.1-1c0-12,0.1-24,0-36
		c0-4.8-1.2-9.3-4-13.3c-7.3-10.2-24.1-10.3-32.1-0.2C69.5,55.7,69.1,56.2,68.8,56.6z M23.2,105.7c5.8,0,11.5,0,17.2,0
		c0-18.8,0-37.4,0-56.1c-5.8,0-11.5,0-17.2,0C23.2,68.4,23.2,87,23.2,105.7z M21.5,31.7c0,5.7,4.6,10.4,10.3,10.4
		c5.6,0,10.2-4.6,10.3-10.3c0-5.8-4.5-10.4-10.2-10.4C26.1,21.4,21.5,25.9,21.5,31.7z"/>
</g>
</svg>
