<?xml version="1.0" encoding="utf-8"?>
<!-- Generator: Adobe Illustrator 16.0.4, SVG Export Plug-In . SVG Version: 6.00 Build 0)  -->
<!DOCTYPE svg PUBLIC "-//W3C//DTD SVG 1.1//EN" "http://www.w3.org/Graphics/SVG/1.1/DTD/svg11.dtd">
<svg version="1.1" id="Layer_1" xmlns="http://www.w3.org/2000/svg" xmlns:xlink="http://www.w3.org/1999/xlink" x="0px" y="0px"
	 width="121px" height="121px" viewBox="0 0 121 121" enable-background="new 0 0 121 121" xml:space="preserve">
<g>
	<path d="M104.9,0H16.1C7.2,0,0,7.2,0,16.1V17v13v0.8c0-0.2,0-0.3,0.1-0.5C0.3,30.7,0.8,31,1.5,31h25.1c0.8,0,1.5-0.4,1.5-1v-4h65v4
		c0,0.6,0.7,1,1.5,1h25.1c0.6,0,1.2-0.3,1.4-0.7c0.1,0.2,0.1,0.3,0.1,0.5V30V17v-0.9C121,7.2,113.8,0,104.9,0z"/>
	<path d="M104.9,40H16.1C7.4,40,0.3,47,0,55.6c0,0,0-0.1,0-0.1v0.6V101v3.9c0,8.9,7.2,16.1,16.1,16.1h88.8c8.9,0,16.1-7.2,16.1-16.1
		V101V56.1v-0.6c0,0,0,0.1,0,0.1C120.7,47,113.6,40,104.9,40z"/>
</g>
</svg>
